<svg version="1.1" id="Layer_1" xmlns="http://www.w3.org/2000/svg" xmlns:xlink="http://www.w3.org/1999/xlink" x="0px" y="0px"
	 width="100%" viewBox="0 0 524 476" enable-background="new 0 0 524 476" xml:space="preserve">
<path fill="#000000" opacity="1.000000" stroke="none" 
	d="
M301.000000,477.000000 
	C200.666687,477.000000 100.833382,477.000000 1.000054,477.000000 
	C1.000036,318.333405 1.000036,159.666794 1.000018,1.000139 
	C175.666565,1.000093 350.333130,1.000093 524.999756,1.000046 
	C524.999878,159.666519 524.999878,318.333038 524.999939,476.999786 
	C450.500000,477.000000 376.000000,477.000000 301.000000,477.000000 
M288.011139,43.983345 
	C288.011139,43.983345 288.087921,43.991211 287.966736,43.435444 
	C287.647247,43.261395 287.327789,43.087345 287.009155,42.991936 
	C287.009155,42.991936 287.087799,42.990620 286.971405,42.432209 
	C286.650757,42.259182 286.330139,42.086151 286.010315,41.990643 
	C286.010315,41.990643 286.087830,41.989227 285.971619,41.431458 
	C285.651276,41.258892 285.330902,41.086330 285.011536,40.989468 
	C285.011536,40.989468 285.087219,40.987854 284.972015,40.431782 
	C284.652527,40.260849 284.333069,40.089920 284.013306,39.988441 
	C284.013306,39.988441 284.082611,39.984062 283.967072,39.430870 
	C283.649628,39.258137 283.332184,39.085400 283.034698,38.977978 
	C283.034698,38.977978 283.095581,38.947056 282.881561,38.321888 
	C282.250305,38.186020 281.619080,38.050156 280.998779,38.008102 
	C280.998779,38.008102 281.092621,37.997440 280.970428,37.439117 
	C280.649689,37.264290 280.328979,37.089458 280.011444,36.991795 
	C280.011444,36.991795 280.088593,36.988010 279.970764,36.432301 
	C279.651428,36.260109 279.332092,36.087917 279.013336,35.987312 
	C279.013336,35.987312 279.084930,35.985981 278.970184,35.431652 
	C278.652069,35.259922 278.333923,35.088192 278.029846,34.981255 
	C278.029846,34.981255 278.086060,34.946114 277.879669,34.317753 
	C277.248566,34.175968 276.617432,34.034180 276.006409,34.006454 
	C276.006409,34.006454 276.120483,33.986488 275.948151,33.425091 
	C275.606171,33.331894 275.264160,33.238693 274.293823,32.817337 
	C268.467712,27.586903 262.049072,23.385670 253.503983,20.474228 
	C254.202637,22.810823 254.328156,24.278578 255.031387,25.376175 
	C256.787323,28.116774 258.976868,30.584188 260.676453,33.355045 
	C262.935974,37.038723 266.463959,40.824635 266.666321,44.711411 
	C267.125366,53.527134 266.122742,62.454819 265.257050,71.292191 
	C264.576904,78.235489 263.211884,85.111694 261.823547,92.664825 
	C261.603119,93.780586 261.382690,94.896347 261.044128,96.507126 
	C261.078491,96.673248 261.112854,96.839371 260.758026,97.728981 
	C260.509369,98.311783 260.112335,98.875511 260.034546,99.480286 
	C259.012726,107.426819 257.471710,115.362373 257.234619,123.335579 
	C257.059601,129.220032 255.031586,135.534256 258.994812,142.013382 
	C259.717377,147.334518 260.439941,152.655655 261.045105,158.746628 
	C262.417297,162.828842 263.789520,166.911057 265.241455,171.711060 
	C265.829285,173.011276 266.367157,174.336914 267.013641,175.607285 
	C269.642120,180.772339 272.303925,185.920441 275.011017,191.720169 
	C275.070282,192.146362 275.129547,192.572556 275.112946,193.505035 
	C275.384308,193.694092 275.655701,193.883148 276.005829,194.788712 
	C276.444641,195.831314 276.917999,196.861053 277.312469,197.920166 
	C277.701508,198.964569 278.010742,200.038712 278.354950,201.099808 
	C277.334381,200.992035 276.295868,200.970306 275.296387,200.761642 
	C270.883606,199.840454 266.482056,198.865463 262.054443,197.954880 
	C262.054443,197.954880 262.098602,197.932602 261.724640,197.286880 
	C260.497681,197.155075 259.270691,197.023270 257.620941,196.233490 
	C249.739059,195.543793 241.857178,194.854080 233.137604,194.031433 
	C230.110977,193.752274 227.084366,193.473129 223.115143,193.037720 
	C213.050934,193.072937 202.986725,193.108170 192.136459,193.009888 
	C189.738266,193.064194 187.340057,193.118500 184.022675,193.029602 
	C167.885040,193.042343 151.910294,191.805206 136.128418,188.057129 
	C118.210548,183.801758 103.623466,175.853012 97.846298,156.809036 
	C97.189186,154.642929 95.592216,152.761932 94.123306,150.215164 
	C85.240234,174.804001 91.162819,216.434677 126.162064,235.662247 
	C126.733177,235.807587 127.304291,235.952927 127.907150,236.107544 
	C127.907150,236.107544 127.914299,236.139847 128.216843,236.815216 
	C132.479279,238.234940 136.676605,239.911697 141.020004,241.011795 
	C146.956772,242.515457 153.004654,243.580460 159.746841,244.978027 
	C160.497894,244.929581 161.248947,244.881134 162.792252,244.966705 
	C163.860016,244.923172 164.927795,244.879639 166.855972,244.984848 
	C174.904694,244.932953 182.953430,244.881073 191.917099,244.972824 
	C204.275177,244.259567 216.633270,243.546310 229.919617,242.976837 
	C241.955521,242.581375 253.991409,242.185898 266.956055,241.922180 
	C279.620819,241.965942 292.285614,242.009705 305.332947,242.748337 
	C308.835938,242.920471 311.751678,243.198044 313.324646,247.537796 
	C315.176880,252.648071 318.347778,257.280365 320.984985,262.904846 
	C322.709991,269.254608 324.434998,275.604370 326.037415,282.806610 
	C326.748199,287.534393 327.458984,292.262146 328.037872,297.915649 
	C328.075592,302.618988 328.113312,307.322296 327.753815,312.722473 
	C326.547974,318.811218 325.342163,324.899994 324.023041,331.689606 
	C323.721924,332.807709 323.420837,333.925812 322.727264,335.697540 
	C319.182220,347.058777 314.733124,358.043243 307.918915,367.856537 
	C301.598572,376.958618 294.950195,385.823730 285.923798,392.579590 
	C280.171387,396.884949 274.593536,401.423553 268.209015,405.989441 
	C260.057434,409.524292 251.934830,413.128418 243.736893,416.552216 
	C241.245255,417.592834 238.545883,418.136017 235.294678,418.997711 
	C234.862549,419.049957 234.430435,419.102234 233.502304,419.053131 
	C233.336380,419.083801 233.170441,419.114502 232.206314,419.049438 
	C228.812897,419.759918 225.419464,420.470428 221.089966,421.008575 
	C212.677872,421.056091 204.265762,421.103607 195.117371,421.019745 
	C193.010208,420.788849 190.863129,420.741211 188.803452,420.292389 
	C182.847229,418.994293 176.926193,417.534790 170.564468,415.994751 
	C170.564468,415.994751 170.123566,415.902405 169.780487,415.299347 
	C168.876419,415.152893 167.972366,415.006409 166.626999,414.240479 
	C163.750549,413.550598 159.905960,414.687317 159.967896,410.074310 
	C168.550217,410.067169 177.133179,410.110687 185.714279,410.004364 
	C187.191940,409.986053 188.661713,409.330933 190.898758,408.999481 
	C193.703613,408.628235 196.610092,408.608398 199.297516,407.831085 
	C224.826752,400.446930 240.817184,388.445953 244.813187,358.242706 
	C245.333984,354.306519 243.049255,349.999176 242.011871,345.096100 
	C241.617416,343.395569 241.222961,341.695068 240.959900,339.203857 
	C239.249954,331.468231 237.539993,323.732574 235.956924,315.146912 
	C236.087402,306.858093 236.222351,298.569336 236.344666,290.280396 
	C236.369995,288.564117 236.348358,286.847168 236.348358,284.579865 
	C228.705704,287.267731 225.602402,293.405396 224.298401,298.890259 
	C221.572937,310.354095 220.745758,322.269287 218.780975,334.707367 
	C217.535706,339.567657 215.979980,344.372772 215.104416,349.298767 
	C212.655884,363.074432 205.818909,373.992584 193.705521,380.912415 
	C185.492752,385.603943 176.606461,389.116486 167.254181,393.026062 
	C165.162247,393.658051 163.070297,394.290009 160.096344,395.003082 
	C157.837036,395.288300 155.497665,395.291199 153.331665,395.905426 
	C141.002167,399.401825 130.944839,395.900024 122.814087,386.269531 
	C118.518539,381.181610 114.297180,376.031067 109.967155,370.440308 
	C109.967155,370.440308 109.823822,369.988159 109.880257,369.468018 
	C109.600983,369.277100 109.321716,369.086182 108.755707,368.264160 
	C106.534447,364.830780 104.313187,361.397430 101.990128,357.226685 
	C100.653740,353.975983 99.071823,350.801788 98.029716,347.459351 
	C95.501915,339.351654 93.225311,331.165619 90.978966,322.143799 
	C90.652443,316.476135 90.436005,310.798492 89.923798,305.147644 
	C89.791832,303.691772 88.729683,302.320160 88.014580,300.268250 
	C87.368195,299.485901 86.721809,298.703552 85.657158,297.236694 
	C79.609650,296.811951 76.591034,299.263428 77.054314,304.123322 
	C77.442101,308.191376 77.572411,312.287689 78.070152,316.340363 
	C78.514275,319.956482 79.305313,323.530029 79.989113,327.910553 
	C80.377617,329.937256 80.766121,331.963959 81.006172,334.794891 
	C82.484848,339.557129 83.684975,344.429962 85.519371,349.050995 
	C87.409447,353.812286 89.917381,358.328278 92.215187,363.663208 
	C93.137840,364.948151 94.103455,366.204681 94.975670,367.523010 
	C98.631317,373.048431 102.258987,378.592346 106.213257,384.720093 
	C107.621483,386.132385 109.502739,387.305481 110.358215,388.997253 
	C114.663910,397.512177 122.987503,401.550659 130.273239,407.701080 
	C138.181915,412.410767 146.090607,417.120422 154.661758,422.159027 
	C160.080093,424.130310 165.498413,426.101562 171.355972,428.697113 
	C176.927811,430.091644 182.499649,431.486176 188.739471,432.974792 
	C190.408615,432.963898 192.077759,432.953003 194.125763,433.787109 
	C203.358246,433.889984 212.590668,434.009094 221.823410,434.046936 
	C222.275497,434.048767 222.730499,433.339691 223.586929,432.961212 
	C223.586929,432.961212 223.978516,432.866913 224.840424,433.005890 
	C240.314911,431.598694 254.716751,426.850464 268.867798,419.017029 
	C271.313141,417.451996 273.711182,415.806213 276.214630,414.340454 
	C280.139771,412.042358 284.579529,410.395020 288.006348,407.523376 
	C294.390930,402.173157 300.692047,396.561798 306.116364,390.272888 
	C311.494507,384.037506 315.954895,376.965302 320.424500,370.007446 
	C323.386292,365.396790 325.993439,360.485260 328.142059,355.445282 
	C330.410645,350.123901 331.946411,344.490143 334.180298,338.323822 
	C335.063843,334.880402 335.947388,331.437012 337.019531,327.179962 
	C337.710938,321.472870 338.402313,315.765747 339.023621,310.021545 
	C339.023621,310.021545 339.059265,310.092377 339.763000,309.981995 
	C340.885864,308.005096 342.008728,306.028168 343.705200,303.677429 
	C349.322266,295.438171 354.066650,286.384918 360.789734,279.177338 
	C368.248413,271.181244 377.513641,264.870239 386.673096,257.709747 
	C395.613708,252.154480 404.729767,246.858917 413.445953,240.971405 
	C422.277924,235.005692 431.031128,228.839386 439.252045,222.072342 
	C452.366333,211.277252 459.199585,196.949921 459.858093,180.020889 
	C460.064056,174.725967 458.569946,169.364914 457.959747,163.354538 
	C457.915955,162.899979 457.872192,162.445404 457.678680,161.272766 
	C456.820923,158.834656 455.963165,156.396545 455.027954,153.189941 
	C453.636353,149.795486 452.244751,146.401031 450.797058,142.381424 
	C450.221863,141.569748 449.646667,140.758072 449.007660,139.982132 
	C449.007660,139.982132 449.060760,139.930695 448.961609,139.446121 
	C448.961609,139.446121 448.846100,138.965179 448.902466,138.462860 
	C448.633881,138.281906 448.365326,138.100967 448.005859,137.195145 
	C444.299408,128.396744 437.869415,121.878441 430.394073,116.072533 
	C430.652832,119.101387 431.088287,122.008980 432.243286,124.595215 
	C436.782562,134.759216 436.770325,145.280396 435.071655,156.513229 
	C435.102234,156.692566 435.132812,156.871918 434.918518,157.562912 
	C434.670807,158.037537 434.423096,158.512146 434.041901,159.741318 
	C433.437439,161.189255 432.850708,162.644897 432.224884,164.083557 
	C430.799622,167.360168 429.355164,170.628448 427.914978,173.952332 
	C427.914978,173.952332 427.961243,173.927841 427.425415,174.046631 
	C427.316589,174.364777 427.207764,174.682922 426.998077,175.447098 
	C426.998077,175.447098 426.944214,175.901230 426.492920,176.099701 
	C426.164886,176.306610 426.059204,176.595062 425.810059,177.568527 
	C424.042725,179.002701 422.131775,180.293701 420.533600,181.896545 
	C414.603333,187.844284 408.776093,193.894714 402.209961,199.934692 
	C391.555023,207.413330 380.745270,214.684494 370.316833,222.466629 
	C365.766876,225.862000 361.364624,229.833099 357.996277,234.361679 
	C348.688324,246.875809 340.883850,260.263397 337.308350,275.958618 
	C336.814819,275.637756 336.321320,275.316925 335.947052,274.186218 
	C333.996307,267.779694 332.045563,261.373169 330.000061,254.225616 
	C329.251678,252.481674 328.503326,250.737732 327.905304,248.325394 
	C327.427185,247.334152 326.949066,246.342896 326.237396,244.696335 
	C323.183044,240.094528 320.128693,235.492706 316.996735,230.436783 
	C316.996735,230.436783 316.876312,229.992096 316.833862,229.330780 
	C315.580841,227.849869 314.327789,226.368973 312.991455,224.194824 
	C311.019745,221.770859 309.048035,219.346893 307.002594,216.310623 
	C306.690918,215.837189 306.379242,215.363754 306.044952,214.224655 
	C305.738678,213.467651 305.432404,212.710632 305.052887,211.128815 
	C302.534393,201.707687 300.702667,192.044830 302.179047,182.415375 
	C303.599182,173.152954 306.555054,164.125992 309.191681,154.299088 
	C311.126282,144.276688 313.060852,134.254288 315.769073,123.756432 
	C315.861420,116.395058 316.018707,109.033493 315.996094,101.672470 
	C315.991058,100.025879 315.355042,98.381226 315.025452,95.962486 
	C314.389130,93.625763 313.752808,91.289040 313.038239,88.129250 
	C311.431976,78.817337 308.494141,70.085373 301.979858,62.158577 
	C297.607361,56.449066 293.234894,50.739555 288.960083,44.464924 
	C288.646637,44.278839 288.333221,44.092754 288.011139,43.983345 
M251.004868,174.384781 
	C250.682907,173.898972 250.360931,173.413177 249.767670,172.289276 
	C244.541321,164.751556 239.295029,157.235214 229.754852,153.309860 
	C224.871063,151.514130 219.987274,149.718399 214.691055,147.244888 
	C198.100449,143.117615 181.237366,141.457855 164.167664,140.792084 
	C155.935760,140.471008 147.729202,138.539948 139.607559,136.869339 
	C136.741623,136.279800 134.162415,134.296234 130.316406,132.384537 
	C131.619705,135.356079 131.978729,137.235840 133.068039,138.472183 
	C137.473862,143.472702 141.788284,148.627487 146.730850,153.062973 
	C153.169220,158.840836 160.575302,163.174011 169.236847,165.032410 
	C176.184967,166.523178 183.084961,168.238144 190.743271,169.982056 
	C192.160065,170.263885 193.576859,170.545715 195.632355,170.984177 
	C196.422043,171.267395 197.211731,171.550613 198.771301,171.977753 
	C203.510635,173.600113 208.249985,175.222473 213.710724,176.992096 
	C215.196884,177.646576 216.683060,178.301056 218.423782,179.790512 
	C230.225510,180.304993 242.027252,180.819489 254.580566,181.366730 
	C253.267197,178.981918 252.146347,176.946671 250.996170,175.000732 
	C250.996170,175.000732 251.085434,175.030167 251.004868,174.384781 
z"/>
<path fill="#8AF057" opacity="1.000000" stroke="none" 
	d="
M125.920837,235.111572 
	C91.162819,216.434677 85.240234,174.804001 94.123306,150.215164 
	C95.592216,152.761932 97.189186,154.642929 97.846298,156.809036 
	C103.623466,175.853012 118.210548,183.801758 136.128418,188.057129 
	C151.910294,191.805206 167.885040,193.042343 184.147369,193.287811 
	C179.696655,194.568283 175.121246,195.590561 170.012680,196.731949 
	C171.149551,198.706039 171.773666,199.789780 172.370941,200.826889 
	C171.130280,201.932083 170.064392,202.881592 168.571655,203.904510 
	C165.067200,203.650177 161.980026,203.393585 158.913803,202.981155 
	C150.195084,201.808365 141.426727,200.885300 132.786331,199.280304 
	C122.303581,197.333099 112.643990,193.203827 103.388420,185.187561 
	C105.849861,197.013702 110.010872,206.619934 117.670944,213.763519 
	C123.992828,219.659164 131.858292,223.899612 139.179230,229.192871 
	C140.986069,230.916718 142.653473,232.321182 144.630966,233.986877 
	C140.481949,236.509689 136.878601,239.517654 131.803818,236.584061 
	C130.767883,235.985199 129.224014,236.265060 127.914299,236.139847 
	C127.914299,236.139847 127.907150,236.107544 127.852898,235.845795 
	C127.172714,235.426544 126.546776,235.269058 125.920837,235.111572 
z"/>
<path fill="#3DB05A" opacity="1.000000" stroke="none" 
	d="
M335.827789,274.996063 
	C336.321320,275.316925 336.814819,275.637756 337.864319,276.115356 
	C340.086151,275.128693 342.092712,274.276154 343.359772,272.792236 
	C349.268677,265.872162 354.842346,258.664764 360.783783,251.773819 
	C368.378479,242.965378 376.408844,234.527573 383.871185,225.611786 
	C388.857483,219.654343 396.871521,216.074829 398.449951,207.458694 
	C399.836884,207.018509 401.199066,206.586166 402.383850,206.210129 
	C402.581390,203.844284 402.745758,201.875412 402.910126,199.906555 
	C408.776093,193.894714 414.603333,187.844284 420.533600,181.896545 
	C422.131775,180.293701 424.042725,179.002701 426.145538,177.107727 
	C426.665619,176.417099 426.820007,176.168533 426.944214,175.901230 
	C426.944214,175.901230 426.998077,175.447098 427.223541,175.072266 
	C427.658600,174.466766 427.829346,174.210236 427.961243,173.927841 
	C427.961243,173.927841 427.914978,173.952332 428.301208,173.951706 
	C429.458374,173.967178 430.229248,173.983276 431.033325,174.060974 
	C431.066528,174.122559 431.219482,174.136093 431.219482,174.136093 
	C431.219482,174.136093 430.998810,174.000610 431.122620,173.682770 
	C438.163879,166.243698 445.081329,159.122467 451.999390,152.000610 
	C452.000000,152.000000 452.001221,151.998779 452.238922,152.204498 
	C453.352905,152.926285 454.229156,153.442352 455.105438,153.958420 
	C455.963165,156.396545 456.820923,158.834656 457.491882,161.558350 
	C456.553131,161.982162 455.497742,161.856781 455.105774,162.307861 
	C453.908844,163.685272 453.157806,165.470596 451.893585,166.765564 
	C446.208618,172.588760 440.194000,178.102264 434.691437,184.088882 
	C424.140839,195.567642 413.989807,207.414078 403.422577,218.877075 
	C394.034363,229.061157 384.184296,238.818634 374.758636,248.969208 
	C361.010895,263.774292 347.486450,278.786560 333.784332,293.634399 
	C332.490967,295.035858 330.610077,295.895142 328.793945,297.001648 
	C328.585907,296.997192 328.169800,296.989929 328.169800,296.989929 
	C327.458984,292.262146 326.748199,287.534393 326.287292,282.085327 
	C328.046478,275.727783 330.656647,273.938721 335.827789,274.996063 
z"/>
<path fill="#8AF057" opacity="1.000000" stroke="none" 
	d="
M198.001419,171.833832 
	C197.211731,171.550613 196.422043,171.267395 195.223724,170.585480 
	C193.367920,167.827774 191.811600,167.043976 190.006317,169.853622 
	C183.084961,168.238144 176.184967,166.523178 169.236847,165.032410 
	C160.575302,163.174011 153.169220,158.840836 146.730850,153.062973 
	C141.788284,148.627487 137.473862,143.472702 133.068039,138.472183 
	C131.978729,137.235840 131.619705,135.356079 130.316406,132.384537 
	C134.162415,134.296234 136.741623,136.279800 139.607559,136.869339 
	C147.729202,138.539948 155.935760,140.471008 164.167664,140.792084 
	C181.237366,141.457855 198.100449,143.117615 214.521927,147.603546 
	C213.148010,148.180466 211.943237,148.398758 210.967941,148.575455 
	C211.456329,150.619965 212.451294,153.478638 212.130096,153.635086 
	C206.703537,156.278214 203.619949,160.611237 202.060318,166.269135 
	C201.974915,166.578949 201.040573,166.588654 200.820267,166.938721 
	C199.818176,168.531113 198.930344,170.195404 198.001419,171.833832 
z"/>
<path fill="#5ED86E" opacity="1.000000" stroke="none" 
	d="
M308.836121,154.995560 
	C306.555054,164.125992 303.599182,173.152954 302.179047,182.415375 
	C300.702667,192.044830 302.534393,201.707687 304.744995,211.626282 
	C301.276947,216.106735 298.116821,220.089706 294.601379,224.038589 
	C290.213959,221.696838 286.283844,219.183228 282.128174,217.125122 
	C273.900879,213.050613 266.041809,207.939285 256.364777,207.677750 
	C254.551056,207.628723 252.761993,206.667313 251.244583,205.894623 
	C253.647598,204.787201 255.733856,203.291290 257.895020,203.173920 
	C261.702362,202.967163 262.178986,200.843536 262.076447,197.909943 
	C266.482056,198.865463 270.883606,199.840454 275.296387,200.761642 
	C276.295868,200.970306 277.334381,200.992035 278.354950,201.099823 
	C278.010742,200.038712 277.701508,198.964569 277.312469,197.920166 
	C276.917999,196.861053 276.444641,195.831314 276.324524,194.383133 
	C279.134735,190.612381 281.626282,187.247208 284.445007,184.021729 
	C285.992462,186.677383 287.212708,189.193390 288.432953,191.709381 
	C289.750580,189.779388 289.765686,188.062637 289.989349,186.373505 
	C290.936188,179.222076 291.945129,172.078873 293.234070,165.049683 
	C294.408722,166.177963 295.280640,167.189224 296.324127,168.399414 
	C298.682556,164.698959 301.632233,161.625748 302.689087,158.000702 
	C303.884827,153.899429 305.803802,153.978210 308.836121,154.995560 
z"/>
<path fill="#8AF057" opacity="1.000000" stroke="none" 
	d="
M288.862396,45.030045 
	C293.234894,50.739555 297.607361,56.449066 301.979767,62.885147 
	C300.733917,66.720825 299.488159,69.829926 298.234039,72.959938 
	C295.824860,70.974411 293.983734,69.457047 292.078552,67.729340 
	C292.014496,67.518997 291.897339,67.093941 291.769043,66.887611 
	C291.435272,66.425293 291.195679,66.206680 290.954590,66.024101 
	C290.987213,66.022758 290.957489,66.080902 290.844879,65.880600 
	C290.565308,65.420830 290.363098,65.192604 290.057922,64.788116 
	C289.990234,64.580612 289.925659,64.148865 289.911011,63.787186 
	C288.908722,62.653358 287.921051,61.881210 286.918427,61.101471 
	C286.903473,61.093887 286.886292,61.065071 286.893372,60.697872 
	C284.909882,58.248112 282.919342,56.165550 280.550415,54.210953 
	C279.780396,55.863579 279.251495,57.368000 279.023041,58.916744 
	C278.356171,63.436886 277.954895,67.999695 277.183167,72.500107 
	C275.836578,80.353081 274.290924,88.171921 272.514221,96.148697 
	C271.458710,98.072693 270.916656,99.975464 269.918671,101.597771 
	C268.987305,103.111816 267.571594,104.327911 266.369080,105.675163 
	C264.995422,104.377510 263.316986,103.271774 262.341797,101.723183 
	C261.519623,100.417610 261.514191,98.597725 261.147217,97.005501 
	C261.112854,96.839371 261.078491,96.673248 261.389496,96.140442 
	C261.873596,94.521736 262.012360,93.269722 262.151123,92.017700 
	C263.211884,85.111694 264.576904,78.235489 265.257050,71.292191 
	C266.122742,62.454819 267.125366,53.527134 266.666321,44.711411 
	C266.463959,40.824635 262.935974,37.038723 260.676453,33.355045 
	C258.976868,30.584188 256.787323,28.116774 255.031387,25.376175 
	C254.328156,24.278578 254.202637,22.810823 253.503983,20.474228 
	C262.049072,23.385670 268.467712,27.586903 274.774963,33.165504 
	C275.516205,33.722527 275.804321,33.880135 276.120483,33.986488 
	C276.120483,33.986488 276.006409,34.006454 276.193604,34.187759 
	C276.949249,34.561413 277.517639,34.753761 278.086060,34.946114 
	C278.086060,34.946114 278.029846,34.981255 278.135895,35.185280 
	C278.522949,35.588196 278.803925,35.787090 279.084930,35.985985 
	C279.084930,35.985981 279.013336,35.987312 279.129333,36.186657 
	C279.526428,36.586670 279.807495,36.787338 280.088593,36.988007 
	C280.088593,36.988010 280.011444,36.991795 280.136414,37.182873 
	C280.538422,37.581783 280.815521,37.789616 281.092621,37.997444 
	C281.092621,37.997440 280.998779,38.008102 281.194153,38.195267 
	C281.958221,38.570637 282.526886,38.758846 283.095581,38.947056 
	C283.095581,38.947056 283.034698,38.977978 283.133850,39.184860 
	C283.516235,39.589184 283.799408,39.786621 284.082611,39.984062 
	C284.082611,39.984062 284.013306,39.988441 284.129547,40.188335 
	C284.526276,40.588104 284.806732,40.787975 285.087219,40.987854 
	C285.087219,40.987854 285.011536,40.989468 285.130920,41.184685 
	C285.529510,41.583012 285.808655,41.786118 286.087830,41.989227 
	C286.087830,41.989227 286.010315,41.990643 286.132202,42.183434 
	C286.531982,42.581028 286.809906,42.785828 287.087799,42.990623 
	C287.087799,42.990620 287.009155,42.991936 287.133087,43.182770 
	C287.533997,43.579472 287.810944,43.785339 288.087921,43.991211 
	C288.087921,43.991211 288.011139,43.983345 288.101562,44.168991 
	C288.347260,44.647449 288.570740,44.872585 288.862396,45.030045 
M266.529388,99.085876 
	C266.162292,99.136986 265.795166,99.188095 265.428040,99.239212 
	C265.505951,99.522644 265.583862,99.806076 265.661774,100.089508 
	C265.986237,99.893944 266.310669,99.698380 266.529388,99.085876 
z"/>
<path fill="#38AB57" opacity="1.000000" stroke="none" 
	d="
M329.001953,297.006104 
	C330.610077,295.895142 332.490967,295.035858 333.784332,293.634399 
	C347.486450,278.786560 361.010895,263.774292 374.758636,248.969208 
	C384.184296,238.818634 394.034363,229.061157 403.422577,218.877075 
	C413.989807,207.414078 424.140839,195.567642 434.691437,184.088882 
	C440.194000,178.102264 446.208618,172.588760 451.893585,166.765564 
	C453.157806,165.470596 453.908844,163.685272 455.105774,162.307861 
	C455.497742,161.856781 456.553131,161.982162 457.566772,161.917389 
	C457.872192,162.445404 457.915955,162.899979 457.716309,164.026520 
	C457.314270,166.799332 457.155640,168.900162 456.674927,171.106171 
	C448.523315,179.683502 440.706268,188.167206 432.861176,196.624924 
	C422.583435,207.705215 412.299561,218.779968 401.984100,229.825119 
	C398.587982,233.461456 394.941620,236.872299 391.664673,240.609818 
	C386.479492,246.523880 381.675385,252.776184 376.411926,258.616699 
	C366.588928,269.516571 354.690948,278.574188 347.265106,291.612305 
	C346.853485,292.335052 345.552429,292.502106 344.777496,293.078583 
	C343.615906,293.942657 341.794678,294.791382 341.575836,295.906158 
	C340.387939,301.956696 335.161530,302.365082 330.635284,304.413544 
	C330.056030,301.786407 329.528992,299.396240 329.001953,297.006104 
z"/>
<path fill="#37A657" opacity="1.000000" stroke="none" 
	d="
M328.793945,297.001648 
	C329.528992,299.396240 330.056030,301.786407 330.635284,304.413544 
	C335.161530,302.365082 340.387939,301.956696 341.575836,295.906158 
	C341.794678,294.791382 343.615906,293.942657 344.777496,293.078583 
	C345.552429,292.502106 346.853485,292.335052 347.265106,291.612305 
	C354.690948,278.574188 366.588928,269.516571 376.411926,258.616699 
	C381.675385,252.776184 386.479492,246.523880 391.664673,240.609818 
	C394.941620,236.872299 398.587982,233.461456 401.984100,229.825119 
	C412.299561,218.779968 422.583435,207.705215 432.861176,196.624924 
	C440.706268,188.167206 448.523315,179.683502 456.754120,171.491608 
	C458.698792,175.918747 457.975739,179.550858 454.874268,182.780396 
	C449.266907,188.619400 443.689484,194.488571 438.180634,200.420425 
	C430.967651,208.187256 423.804443,216.000854 416.682281,223.851028 
	C414.459564,226.300949 412.618286,229.112732 410.292145,231.450104 
	C403.662903,238.111404 397.207764,245.020447 389.969604,250.961502 
	C387.382294,253.085159 385.539886,254.461075 385.992249,257.825531 
	C377.513641,264.870239 368.248413,271.181244 360.789734,279.177338 
	C354.066650,286.384918 349.322266,295.438171 343.042480,303.886841 
	C341.272919,306.094940 340.166077,308.093658 339.059265,310.092377 
	C339.059265,310.092377 339.023621,310.021545 338.688538,310.048615 
	C335.698425,311.909546 333.043365,313.743408 330.115906,315.765442 
	C329.444550,314.487640 328.797791,313.256622 328.151031,312.025635 
	C328.113312,307.322296 328.075592,302.618988 328.103821,297.452789 
	C328.169800,296.989929 328.585907,296.997192 328.793945,297.001648 
z"/>
<path fill="#359F56" opacity="1.000000" stroke="none" 
	d="
M386.332672,257.767639 
	C385.539886,254.461075 387.382294,253.085159 389.969604,250.961502 
	C397.207764,245.020447 403.662903,238.111404 410.292145,231.450104 
	C412.618286,229.112732 414.459564,226.300949 416.682281,223.851028 
	C423.804443,216.000854 430.967651,208.187256 438.180634,200.420425 
	C443.689484,194.488571 449.266907,188.619400 454.874268,182.780396 
	C457.975739,179.550858 458.698792,175.918747 457.076202,171.386414 
	C457.155640,168.900162 457.314270,166.799332 457.663452,164.366333 
	C458.569946,169.364914 460.064056,174.725967 459.858093,180.020889 
	C459.199585,196.949921 452.366333,211.277252 439.252045,222.072342 
	C431.031128,228.839386 422.277924,235.005692 413.445953,240.971405 
	C404.729767,246.858917 395.613708,252.154480 386.332672,257.767639 
z"/>
<path fill="#319254" opacity="1.000000" stroke="none" 
	d="
M333.802338,338.992828 
	C331.946411,344.490143 330.410645,350.123901 328.142059,355.445282 
	C325.993439,360.485260 323.386292,365.396790 320.424500,370.007446 
	C315.954895,376.965302 311.494507,384.037506 306.116364,390.272888 
	C300.692047,396.561798 294.390930,402.173157 288.006348,407.523376 
	C284.579529,410.395020 280.139771,412.042358 276.214630,414.340454 
	C273.711182,415.806213 271.313141,417.451996 268.164795,419.003784 
	C264.580322,418.350800 264.947571,416.743530 266.479553,415.119232 
	C268.363831,413.121490 270.445618,411.309998 272.396454,409.461182 
	C271.102966,408.113678 270.020172,406.985626 268.937378,405.857605 
	C274.593536,401.423553 280.171387,396.884949 285.923798,392.579590 
	C294.950195,385.823730 301.598572,376.958618 307.918915,367.856537 
	C314.733124,358.043243 319.182220,347.058777 323.110596,335.688110 
	C323.118103,338.206573 323.028381,340.820068 322.303467,343.243500 
	C321.018311,347.539856 319.347443,351.720856 317.571045,356.698029 
	C319.537933,356.465240 320.475525,356.623016 320.714874,356.285583 
	C324.225250,351.336243 327.603851,346.293457 331.115936,341.345367 
	C331.786072,340.401276 332.895569,339.768982 333.802338,338.992828 
z"/>
<path fill="#4AC261" opacity="1.000000" stroke="none" 
	d="
M240.828491,339.994537 
	C241.222961,341.695068 241.617416,343.395569 242.025085,345.931213 
	C241.414215,349.525452 241.565689,352.872681 240.009521,354.925110 
	C236.434799,359.639801 232.013596,363.710175 227.962234,368.066498 
	C217.147614,379.695312 206.312164,391.305084 195.554993,402.986877 
	C190.081970,408.930267 182.955750,408.001831 176.087601,407.666565 
	C180.282486,402.615051 184.349960,397.844879 188.542130,393.186920 
	C193.462646,387.719757 198.565125,382.415527 203.449478,376.916931 
	C207.156204,372.744080 210.645050,368.377747 214.215851,364.115356 
	C214.463104,364.345459 214.970245,364.817444 214.775284,364.636017 
	C220.877823,358.219879 226.630966,351.920105 232.688568,345.928101 
	C235.048843,343.593384 238.094833,341.951843 240.828491,339.994537 
z"/>
<path fill="#48BA61" opacity="1.000000" stroke="none" 
	d="
M176.015350,407.997559 
	C182.955750,408.001831 190.081970,408.930267 195.554993,402.986877 
	C206.312164,391.305084 217.147614,379.695312 227.962234,368.066498 
	C232.013596,363.710175 236.434799,359.639801 240.009521,354.925110 
	C241.565689,352.872681 241.414215,349.525452 242.051163,346.315002 
	C243.049255,349.999176 245.333984,354.306519 244.813187,358.242706 
	C240.817184,388.445953 224.826752,400.446930 199.297516,407.831085 
	C196.610092,408.608398 193.703613,408.628235 190.040802,408.948486 
	C183.792465,408.820587 178.402084,408.743683 173.289658,408.527405 
	C174.383514,408.257874 175.199432,408.127716 176.015350,407.997559 
z"/>
<path fill="#44B55F" opacity="1.000000" stroke="none" 
	d="
M402.560059,199.920624 
	C402.745758,201.875412 402.581390,203.844284 402.383850,206.210129 
	C401.199066,206.586166 399.836884,207.018509 398.449951,207.458694 
	C396.871521,216.074829 388.857483,219.654343 383.871185,225.611786 
	C376.408844,234.527573 368.378479,242.965378 360.783783,251.773819 
	C354.842346,258.664764 349.268677,265.872162 343.359772,272.792236 
	C342.092712,274.276154 340.086151,275.128693 338.180603,276.094604 
	C340.883850,260.263397 348.688324,246.875809 357.996277,234.361679 
	C361.364624,229.833099 365.766876,225.862000 370.316833,222.466629 
	C380.745270,214.684494 391.555023,207.413330 402.560059,199.920624 
z"/>
<path fill="#51C666" opacity="1.000000" stroke="none" 
	d="
M176.087601,407.666565 
	C175.199432,408.127716 174.383514,408.257874 172.858185,408.582275 
	C170.699478,408.744110 169.250183,408.711639 167.495346,408.526428 
	C165.791977,408.246521 164.394165,408.119415 163.076157,407.657318 
	C167.426376,403.071686 171.696762,398.821014 176.618866,393.921661 
	C172.712250,393.573914 170.366821,393.365112 168.021408,393.156342 
	C176.606461,389.116486 185.492752,385.603943 193.705521,380.912415 
	C205.818909,373.992584 212.655884,363.074432 215.104416,349.298767 
	C215.979980,344.372772 217.535706,339.567657 219.336533,334.326569 
	C228.056381,332.588715 232.462753,327.617371 233.913055,319.625549 
	C234.145920,318.342316 235.171112,317.202881 235.830017,315.996948 
	C237.539993,323.732574 239.249954,331.468231 240.894196,339.599182 
	C238.094833,341.951843 235.048843,343.593384 232.688568,345.928101 
	C226.630966,351.920105 220.877823,358.219879 214.775284,364.636017 
	C214.970245,364.817444 214.463104,364.345459 214.215851,364.115356 
	C210.645050,368.377747 207.156204,372.744080 203.449478,376.916931 
	C198.565125,382.415527 193.462646,387.719757 188.542130,393.186920 
	C184.349960,397.844879 180.282486,402.615051 176.087601,407.666565 
z"/>
<path fill="#78E95D" opacity="1.000000" stroke="none" 
	d="
M218.169235,178.955536 
	C216.683060,178.301056 215.196884,177.646576 213.418594,176.588501 
	C212.089142,173.484650 211.051819,170.784378 209.549591,166.873871 
	C215.368454,170.918701 219.526031,167.922073 222.919327,164.413910 
	C225.819870,161.415192 227.745972,157.473923 230.103088,153.949554 
	C239.295029,157.235214 244.541321,164.751556 249.941315,172.910034 
	C250.438461,174.030579 250.761948,174.530380 251.085434,175.030167 
	C251.085434,175.030167 250.996170,175.000732 251.016922,175.384811 
	C251.529114,179.985901 248.824921,180.222565 245.733215,180.088333 
	C236.546143,179.689529 227.357361,179.330261 218.169235,178.955536 
z"/>
<path fill="#5ED86E" opacity="1.000000" stroke="none" 
	d="
M266.027313,241.790421 
	C253.991409,242.185898 241.955521,242.581375 229.548630,242.573883 
	C235.824387,234.686264 235.824387,234.686264 227.464462,232.090271 
	C235.264618,231.387115 242.601456,230.752548 250.286987,230.355560 
	C255.720840,230.750961 260.808258,231.083893 265.890472,231.017197 
	C270.942139,230.950928 275.988525,230.482910 281.454834,230.118744 
	C286.581299,230.423935 291.290131,230.801453 295.657837,231.361893 
	C285.093903,233.070755 283.872009,234.001297 282.486877,241.004669 
	C276.693909,241.292755 271.360596,241.541595 266.027313,241.790421 
z"/>
<path fill="#52CB67" opacity="1.000000" stroke="none" 
	d="
M167.637787,393.091187 
	C170.366821,393.365112 172.712250,393.573914 176.618866,393.921661 
	C171.696762,398.821014 167.426376,403.071686 162.752518,407.662964 
	C161.333679,408.201111 160.318298,408.398621 158.944061,408.698212 
	C158.344101,408.861298 158.102982,408.922333 157.667206,408.798157 
	C155.437851,406.784119 155.130646,407.977722 155.869308,409.706055 
	C157.130508,412.657043 158.725662,415.465302 160.183075,418.338531 
	C158.055710,419.539734 156.027496,420.684937 153.999283,421.830109 
	C146.090607,417.120422 138.181915,412.410767 130.393921,407.177795 
	C133.235428,406.038544 137.367920,406.317352 138.426239,404.647644 
	C142.442413,398.311432 148.584610,397.701843 154.876022,396.731567 
	C156.953735,396.411133 158.946671,395.540863 160.978363,394.921997 
	C163.070297,394.290009 165.162247,393.658051 167.637787,393.091187 
z"/>
<path fill="#56CF6A" opacity="1.000000" stroke="none" 
	d="
M235.893463,315.571930 
	C235.171112,317.202881 234.145920,318.342316 233.913055,319.625549 
	C232.462753,327.617371 228.056381,332.588715 219.515472,333.972412 
	C220.745758,322.269287 221.572937,310.354095 224.298401,298.890259 
	C225.602402,293.405396 228.705704,287.267731 236.348358,284.579865 
	C236.348358,286.847168 236.369995,288.564117 236.344666,290.280396 
	C236.222351,298.569336 236.087402,306.858093 235.893463,315.571930 
z"/>
<path fill="#56CF6A" opacity="1.000000" stroke="none" 
	d="
M282.946564,240.965393 
	C283.872009,234.001297 285.093903,233.070755 296.006714,231.283600 
	C297.992554,230.535629 299.288361,230.048889 301.052307,229.386307 
	C298.845947,227.462997 296.901337,225.767853 294.956726,224.072693 
	C298.116821,220.089706 301.276947,216.106735 304.781616,212.038696 
	C305.432404,212.710632 305.738678,213.467651 306.102966,214.846420 
	C306.466064,215.953094 306.771210,216.438019 307.076324,216.922928 
	C309.048035,219.346893 311.019745,221.770859 313.023560,224.926086 
	C312.917847,228.346252 313.974182,229.982620 316.876312,229.992096 
	C316.876312,229.992096 316.996735,230.436783 317.064758,231.001266 
	C316.686218,233.587311 316.461609,235.690765 315.751526,237.615067 
	C313.628235,243.368912 308.749146,240.863434 304.339539,241.088806 
	C296.909546,241.054596 289.928070,241.009995 282.946564,240.965393 
z"/>
<path fill="#68DD6B" opacity="1.000000" stroke="none" 
	d="
M309.013916,154.647324 
	C305.803802,153.978210 303.884827,153.899429 302.689087,158.000702 
	C301.632233,161.625748 298.682556,164.698959 296.324127,168.399414 
	C295.280640,167.189224 294.408722,166.177963 293.255615,164.647736 
	C293.028442,163.303146 292.938568,162.436981 293.158081,161.658051 
	C296.229462,150.760757 299.357758,139.879486 302.434753,128.983749 
	C303.086792,126.674767 303.588959,124.323456 304.523285,121.913010 
	C308.169281,120.557838 311.452179,119.281303 314.778015,118.446396 
	C314.879089,120.669312 314.937256,122.450592 314.995422,124.231880 
	C313.060852,134.254288 311.126282,144.276688 309.013916,154.647324 
z"/>
<path fill="#5ED86E" opacity="1.000000" stroke="none" 
	d="
M160.537354,394.962524 
	C158.946671,395.540863 156.953735,396.411133 154.876022,396.731567 
	C148.584610,397.701843 142.442413,398.311432 138.426239,404.647644 
	C137.367920,406.317352 133.235428,406.038544 130.236969,406.875946 
	C122.987503,401.550659 114.663910,397.512177 110.358215,388.997253 
	C109.502739,387.305481 107.621483,386.132385 106.106003,384.043518 
	C107.346603,379.214203 108.694466,375.061493 110.042328,370.908783 
	C114.297180,376.031067 118.518539,381.181610 122.814087,386.269531 
	C130.944839,395.900024 141.002167,399.401825 153.331665,395.905426 
	C155.497665,395.291199 157.837036,395.288300 160.537354,394.962524 
z"/>
<path fill="#83EE58" opacity="1.000000" stroke="none" 
	d="
M229.928955,153.629700 
	C227.745972,157.473923 225.819870,161.415192 222.919327,164.413910 
	C219.526031,167.922073 215.368454,170.918701 209.549591,166.873871 
	C211.051819,170.784378 212.089142,173.484650 213.057892,176.514877 
	C208.249985,175.222473 203.510635,173.600113 198.386353,171.905792 
	C198.930344,170.195404 199.818176,168.531113 200.820267,166.938721 
	C201.040573,166.588654 201.974915,166.578949 202.060318,166.269135 
	C203.619949,160.611237 206.703537,156.278214 212.130096,153.635086 
	C212.451294,153.478638 211.456329,150.619965 210.967941,148.575455 
	C211.943237,148.398758 213.148010,148.180466 214.728134,147.942429 
	C219.987274,149.718399 224.871063,151.514130 229.928955,153.629700 
z"/>
<path fill="#369957" opacity="1.000000" stroke="none" 
	d="
M268.573181,405.923523 
	C270.020172,406.985626 271.102966,408.113678 272.396454,409.461182 
	C270.445618,411.309998 268.363831,413.121490 266.479553,415.119232 
	C264.947571,416.743530 264.580322,418.350800 267.808228,419.045105 
	C254.716751,426.850464 240.314911,431.598694 224.471466,432.566864 
	C225.559402,431.403839 226.989426,430.122589 228.477798,430.050781 
	C235.496368,429.712097 238.353867,424.214447 243.341217,419.536133 
	C240.000717,419.252106 237.971191,419.079559 235.941666,418.907013 
	C238.545883,418.136017 241.245255,417.592834 243.736893,416.552216 
	C251.934830,413.128418 260.057434,409.524292 268.573181,405.923523 
z"/>
<path fill="#83EA60" opacity="1.000000" stroke="none" 
	d="
M260.952637,97.367241 
	C261.514191,98.597725 261.519623,100.417610 262.341797,101.723183 
	C263.316986,103.271774 264.995422,104.377510 266.369080,105.675163 
	C267.571594,104.327911 268.987305,103.111816 269.918671,101.597771 
	C270.916656,99.975464 271.458710,98.072693 272.587067,96.596375 
	C271.930878,111.279045 270.887329,125.657661 269.556549,139.787109 
	C268.835449,137.180130 268.800964,134.645370 267.856628,132.513672 
	C266.891052,130.334076 265.033234,128.549744 263.565979,126.592407 
	C262.379944,128.339233 260.665771,129.939362 260.130402,131.866928 
	C259.306946,134.831573 259.292786,138.021027 258.935242,141.115097 
	C255.031586,135.534256 257.059601,129.220032 257.234619,123.335579 
	C257.471710,115.362373 259.012726,107.426819 260.034546,99.480286 
	C260.112335,98.875511 260.509369,98.311783 260.952637,97.367241 
z"/>
<path fill="#68DD6B" opacity="1.000000" stroke="none" 
	d="
M227.001144,232.158844 
	C235.824387,234.686264 235.824387,234.686264 229.084503,242.501999 
	C216.633270,243.546310 204.275177,244.259567 191.625519,244.580536 
	C197.365631,243.473633 200.142197,239.296539 202.350311,234.111267 
	C203.772736,233.779739 204.854187,233.489014 206.395325,233.113266 
	C213.570389,232.738434 220.285767,232.448639 227.001144,232.158844 
z"/>
<path fill="#44B55F" opacity="1.000000" stroke="none" 
	d="
M431.000153,173.999390 
	C430.229248,173.983276 429.458374,173.967178 428.302979,173.925598 
	C429.355164,170.628448 430.799622,167.360168 432.224884,164.083557 
	C432.850708,162.644897 433.437439,161.189255 434.340820,159.301758 
	C434.814301,158.258560 434.988861,157.654907 435.163391,157.051254 
	C435.132812,156.871918 435.102234,156.692566 435.461792,156.104324 
	C436.566925,153.112045 437.698883,150.560837 437.901367,147.937912 
	C438.223175,143.768814 439.297546,140.841125 444.190155,140.827042 
	C445.814545,140.822342 447.437286,140.245804 449.060760,139.930695 
	C449.060760,139.930695 449.007660,139.982132 448.989563,140.249329 
	C449.598694,141.346527 450.225922,142.176544 450.853180,143.006561 
	C452.244751,146.401031 453.636353,149.795486 455.066711,153.574188 
	C454.229156,153.442352 453.352905,152.926285 452.180420,151.983643 
	C451.554535,151.329987 451.224854,151.102890 450.895172,150.875793 
	C450.864044,151.016251 450.767822,151.251953 450.812073,151.282227 
	C451.193268,151.542908 451.599792,151.766541 451.998779,152.001221 
	C445.081329,159.122467 438.163879,166.243698 431.123199,173.682465 
	C431.000000,174.000000 431.000153,173.999390 431.000153,173.999390 
z"/>
<path fill="#78E95D" opacity="1.000000" stroke="none" 
	d="
M224.057739,193.193970 
	C227.084366,193.473129 230.110977,193.752274 233.535828,194.454773 
	C232.383041,196.563065 230.876831,198.292328 229.267426,199.919525 
	C227.880676,201.321640 226.376358,202.607468 224.463898,203.955475 
	C213.339432,203.943634 202.675110,203.921036 192.050079,203.544540 
	C192.822250,202.450912 193.439316,201.279877 194.308151,201.046616 
	C197.943146,200.070679 199.105621,197.604446 199.476685,194.139679 
	C207.981369,193.797745 216.019562,193.495850 224.057739,193.193970 
z"/>
<path fill="#83EA60" opacity="1.000000" stroke="none" 
	d="
M292.142639,67.939682 
	C293.983734,69.457047 295.824860,70.974411 298.234039,72.959938 
	C299.488159,69.829926 300.733917,66.720825 302.011353,63.247627 
	C308.494141,70.085373 311.431976,78.817337 312.850250,88.810547 
	C310.973480,93.809639 307.037994,94.848885 302.983246,95.646706 
	C300.773682,89.644501 298.847961,83.953728 296.703766,78.346512 
	C295.352478,74.812912 293.674225,71.404335 292.142639,67.939682 
z"/>
<path fill="#72E364" opacity="1.000000" stroke="none" 
	d="
M202.009338,234.152100 
	C200.142197,239.296539 197.365631,243.473633 191.168045,244.508728 
	C182.953430,244.881073 174.904694,244.932953 166.433990,244.538681 
	C167.341888,240.780426 168.671738,237.468338 170.398956,234.095673 
	C173.834915,233.998352 176.873520,233.961624 180.383545,233.966537 
	C187.906418,234.056168 194.957886,234.104126 202.009338,234.152100 
z"/>
<path fill="#83EA60" opacity="1.000000" stroke="none" 
	d="
M170.001602,234.156250 
	C168.671738,237.468338 167.341888,240.780426 166.003784,244.464294 
	C164.927795,244.879639 163.860016,244.923172 162.293640,244.630829 
	C160.864975,244.474487 159.934937,244.653992 159.004898,244.833511 
	C153.004654,243.580460 146.956772,242.515457 141.020004,241.011795 
	C136.676605,239.911697 132.479279,238.234940 128.065567,236.477539 
	C129.224014,236.265060 130.767883,235.985199 131.803818,236.584061 
	C136.878601,239.517654 140.481949,236.509689 144.630966,233.986877 
	C142.653473,232.321182 140.986069,230.916718 139.589279,229.239700 
	C142.543045,229.451691 145.480469,229.401154 147.857254,230.530487 
	C153.047821,232.996765 158.254700,233.870682 163.939621,233.117126 
	C165.880264,232.859879 167.976471,233.776169 170.001602,234.156250 
z"/>
<path fill="#51C666" opacity="1.000000" stroke="none" 
	d="
M304.788055,241.078415 
	C308.749146,240.863434 313.628235,243.368912 315.751526,237.615067 
	C316.461609,235.690765 316.686218,233.587311 317.103546,231.228317 
	C320.128693,235.492706 323.183044,240.094528 326.256470,245.385101 
	C326.768677,247.047165 327.261841,248.020477 327.754974,248.993774 
	C328.503326,250.737732 329.251678,252.481674 329.821716,254.873291 
	C328.480896,258.183380 327.318390,260.845764 326.352814,263.057068 
	C324.181305,262.680634 322.564087,262.400269 320.946899,262.119934 
	C318.347778,257.280365 315.176880,252.648071 313.324646,247.537796 
	C311.751678,243.198044 308.835938,242.920471 305.097778,242.157898 
	C304.862610,241.567474 304.788055,241.078415 304.788055,241.078415 
z"/>
<path fill="#68DD6B" opacity="1.000000" stroke="none" 
	d="
M224.924011,203.944702 
	C226.376358,202.607468 227.880676,201.321640 229.267426,199.919525 
	C230.876831,198.292328 232.383041,196.563065 233.954681,194.521240 
	C241.857178,194.854080 249.739059,195.543793 258.104736,196.793549 
	C259.758545,197.546616 260.928589,197.739609 262.098602,197.932602 
	C262.098602,197.932602 262.054443,197.954880 262.065430,197.932404 
	C262.178986,200.843536 261.702362,202.967163 257.895020,203.173920 
	C255.733856,203.291290 253.647598,204.787201 250.803833,205.837921 
	C242.381577,205.605392 234.683136,205.197235 226.750458,204.635468 
	C225.985489,204.302811 225.454742,204.123749 224.924011,203.944702 
z"/>
<path fill="#72E364" opacity="1.000000" stroke="none" 
	d="
M303.174683,95.993484 
	C307.037994,94.848885 310.973480,93.809639 312.889404,89.222076 
	C313.752808,91.289040 314.389130,93.625763 314.955750,96.833878 
	C314.835724,104.471771 314.785400,111.238266 314.735077,118.004776 
	C311.452179,119.281303 308.169281,120.557838 304.459259,121.449081 
	C303.746307,112.707024 303.460480,104.350250 303.174683,95.993484 
z"/>
<path fill="#48BA61" opacity="1.000000" stroke="none" 
	d="
M170.991348,416.138641 
	C176.926193,417.534790 182.847229,418.994293 188.803452,420.292389 
	C190.863129,420.741211 193.010208,420.788849 195.800461,421.386414 
	C203.316925,421.924713 210.150314,422.096313 216.966949,422.442932 
	C216.950226,422.617920 216.929581,422.968842 216.468384,422.972687 
	C211.858887,422.983063 207.709656,422.940491 203.562698,423.018921 
	C201.761871,423.052979 199.471313,422.693787 198.260208,423.626251 
	C194.636871,426.416138 191.436798,429.755737 188.071472,432.880676 
	C182.499649,431.486176 176.927811,430.091644 171.227692,428.009521 
	C171.936386,424.526642 172.773361,421.731384 173.685669,418.684601 
	C173.048248,418.082275 172.019791,417.110443 170.991348,416.138641 
z"/>
<path fill="#72E364" opacity="1.000000" stroke="none" 
	d="
M90.847488,323.011169 
	C93.225311,331.165619 95.501915,339.351654 98.029716,347.459351 
	C99.071823,350.801788 100.653740,353.975983 101.733078,357.518311 
	C99.425865,356.326416 97.718460,356.297516 96.113075,358.615997 
	C95.009087,360.210358 93.489059,361.516602 92.154984,362.951599 
	C89.917381,358.328278 87.409447,353.812286 85.519371,349.050995 
	C83.684975,344.429962 82.484848,339.557129 81.389908,334.540955 
	C82.197815,335.135742 82.481155,336.102783 83.074539,336.809448 
	C84.442215,338.438263 85.960503,339.940674 87.417694,341.494385 
	C88.660423,339.800110 90.215088,338.241180 91.030861,336.361572 
	C91.533768,335.202850 90.826569,333.556061 90.808823,332.126556 
	C90.771133,329.088715 90.828873,326.049713 90.847488,323.011169 
z"/>
<path fill="#78E95D" opacity="1.000000" stroke="none" 
	d="
M258.965027,141.564240 
	C259.292786,138.021027 259.306946,134.831573 260.130402,131.866928 
	C260.665771,129.939362 262.379944,128.339233 263.565979,126.592407 
	C265.033234,128.549744 266.891052,130.334076 267.856628,132.513672 
	C268.800964,134.645370 268.835449,137.180130 269.613037,140.163315 
	C270.327820,144.176666 270.698853,147.564682 270.776215,151.130234 
	C268.622192,153.262390 266.895325,155.376709 264.838165,157.095795 
	C263.972229,157.819412 262.408813,157.708405 261.162476,157.976807 
	C260.439941,152.655655 259.717377,147.334518 258.965027,141.564240 
z"/>
<path fill="#37A657" opacity="1.000000" stroke="none" 
	d="
M216.929581,422.968842 
	C216.929581,422.968842 216.950226,422.617920 217.348709,422.405487 
	C219.173477,421.855682 220.599762,421.518280 222.026047,421.180908 
	C225.419464,420.470428 228.812897,419.759918 232.716614,419.186737 
	C233.226898,419.324036 233.637100,419.365997 233.637100,419.365997 
	C233.637100,419.365997 233.998306,419.154480 233.998306,419.154480 
	C234.430435,419.102234 234.862549,419.049957 235.618164,418.952362 
	C237.971191,419.079559 240.000717,419.252106 243.341217,419.536133 
	C238.353867,424.214447 235.496368,429.712097 228.477798,430.050781 
	C226.989426,430.122589 225.559402,431.403839 224.040497,432.497375 
	C223.978516,432.866913 223.586929,432.961212 222.910492,432.880981 
	C213.150101,432.731689 204.066162,432.662628 195.266357,432.432739 
	C198.980820,432.174042 202.415482,432.153442 205.840576,431.962006 
	C212.480789,431.590820 215.561569,429.045929 216.929581,422.968842 
z"/>
<path fill="#68DD6B" opacity="1.000000" stroke="none" 
	d="
M92.185089,363.307404 
	C93.489059,361.516602 95.009087,360.210358 96.113075,358.615997 
	C97.718460,356.297516 99.425865,356.326416 101.783981,357.887024 
	C104.313187,361.397430 106.534447,364.830780 108.999863,368.781433 
	C109.406181,369.554657 109.599442,369.784485 109.823822,369.988159 
	C109.823822,369.988159 109.967155,370.440308 110.004745,370.674561 
	C108.694466,375.061493 107.346603,379.214203 105.947830,383.748199 
	C102.258987,378.592346 98.631317,373.048431 94.975670,367.523010 
	C94.103455,366.204681 93.137840,364.948151 92.185089,363.307404 
z"/>
<path fill="#83EE58" opacity="1.000000" stroke="none" 
	d="
M199.010193,194.179749 
	C199.105621,197.604446 197.943146,200.070679 194.308151,201.046616 
	C193.439316,201.279877 192.822250,202.450912 191.613098,203.571365 
	C189.384445,203.985733 187.632050,204.019379 185.935074,204.046219 
	C185.990494,204.039429 186.002640,204.150436 185.843872,203.971588 
	C185.135345,203.805847 184.585587,203.818954 183.571915,203.901276 
	C178.404831,203.924026 173.701675,203.877563 168.998505,203.831116 
	C170.064392,202.881592 171.130280,201.932083 172.370941,200.826889 
	C171.773666,199.789780 171.149551,198.706039 170.012680,196.731949 
	C175.121246,195.590561 179.696655,194.568283 184.606964,193.359421 
	C187.340057,193.118500 189.738266,193.064194 192.857178,193.285767 
	C195.388672,193.767685 197.199432,193.973724 199.010193,194.179749 
z"/>
<path fill="#51C666" opacity="1.000000" stroke="none" 
	d="
M449.011169,139.688416 
	C447.437286,140.245804 445.814545,140.822342 444.190155,140.827042 
	C439.297546,140.841125 438.223175,143.768814 437.901367,147.937912 
	C437.698883,150.560837 436.566925,153.112045 435.522675,155.838303 
	C436.770325,145.280396 436.782562,134.759216 432.243286,124.595215 
	C431.088287,122.008980 430.652832,119.101387 430.394073,116.072533 
	C437.869415,121.878441 444.299408,128.396744 448.140350,137.754181 
	C448.437408,138.554947 448.627838,138.772263 448.846100,138.965179 
	C448.846100,138.965179 448.961609,139.446121 449.011169,139.688416 
z"/>
<path fill="#78E95D" opacity="1.000000" stroke="none" 
	d="
M90.913223,322.577484 
	C90.828873,326.049713 90.771133,329.088715 90.808823,332.126556 
	C90.826569,333.556061 91.533768,335.202850 91.030861,336.361572 
	C90.215088,338.241180 88.660423,339.800110 87.417694,341.494385 
	C85.960503,339.940674 84.442215,338.438263 83.074539,336.809448 
	C82.481155,336.102783 82.197815,335.135742 81.464142,334.138824 
	C80.766121,331.963959 80.377617,329.937256 80.001648,327.079956 
	C79.992783,324.497162 79.971367,322.744904 80.351379,320.992157 
	C82.367050,319.954498 85.103485,319.166962 85.399391,317.836609 
	C86.618660,312.354889 87.097115,306.708435 87.909836,301.069580 
	C87.971756,301.016602 88.094833,300.909851 88.094833,300.909851 
	C88.729683,302.320160 89.791832,303.691772 89.923798,305.147644 
	C90.436005,310.798492 90.652443,316.476135 90.913223,322.577484 
z"/>
<path fill="#369957" opacity="1.000000" stroke="none" 
	d="
M333.991333,338.658325 
	C332.895569,339.768982 331.786072,340.401276 331.115936,341.345367 
	C327.603851,346.293457 324.225250,351.336243 320.714874,356.285583 
	C320.475525,356.623016 319.537933,356.465240 317.571045,356.698029 
	C319.347443,351.720856 321.018311,347.539856 322.303467,343.243500 
	C323.028381,340.820068 323.118103,338.206573 323.306824,335.361298 
	C323.420837,333.925812 323.721924,332.807709 324.441956,331.313293 
	C328.638794,329.093262 332.171082,326.250549 336.830933,327.993591 
	C335.947388,331.437012 335.063843,334.880402 333.991333,338.658325 
z"/>
<path fill="#72E364" opacity="1.000000" stroke="none" 
	d="
M261.103790,158.361725 
	C262.408813,157.708405 263.972229,157.819412 264.838165,157.095795 
	C266.895325,155.376709 268.622192,153.262390 271.110474,151.330383 
	C273.769379,158.229614 275.800415,165.106232 277.487854,172.018921 
	C273.446472,174.766708 269.888428,175.233643 266.522644,171.475296 
	C266.240906,171.160690 265.623291,171.146851 265.161743,170.993271 
	C263.789520,166.911057 262.417297,162.828842 261.103790,158.361725 
z"/>
<path fill="#68DD6B" opacity="1.000000" stroke="none" 
	d="
M265.201599,171.352173 
	C265.623291,171.146851 266.240906,171.160690 266.522644,171.475296 
	C269.888428,175.233643 273.446472,174.766708 277.645142,172.345947 
	C280.136658,176.385284 282.127228,180.133667 284.117828,183.882050 
	C281.626282,187.247208 279.134735,190.612381 276.285126,194.024872 
	C275.655701,193.883148 275.384308,193.694092 275.466187,193.131287 
	C279.545227,188.808441 279.606415,188.508835 277.299683,185.507126 
	C276.516998,187.362732 275.735229,189.218765 274.953430,191.074799 
	C272.303925,185.920441 269.642120,180.772339 267.013641,175.607285 
	C266.367157,174.336914 265.829285,173.011276 265.201599,171.352173 
z"/>
<path fill="#48BA61" opacity="1.000000" stroke="none" 
	d="
M320.965942,262.512390 
	C322.564087,262.400269 324.181305,262.680634 326.352814,263.057068 
	C327.318390,260.845764 328.480896,258.183380 329.869110,255.243805 
	C332.045563,261.373169 333.996307,267.779694 335.887421,274.591125 
	C330.656647,273.938721 328.046478,275.727783 326.348572,281.659088 
	C324.434998,275.604370 322.709991,269.254608 320.965942,262.512390 
z"/>
<path fill="#359F56" opacity="1.000000" stroke="none" 
	d="
M336.925232,327.586792 
	C332.171082,326.250549 328.638794,329.093262 324.498627,330.962830 
	C325.342163,324.899994 326.547974,318.811218 327.952423,312.374054 
	C328.797791,313.256622 329.444550,314.487640 330.115906,315.765442 
	C333.043365,313.743408 335.698425,311.909546 338.723572,310.067169 
	C338.402313,315.765747 337.710938,321.472870 336.925232,327.586792 
z"/>
<path fill="#4AC261" opacity="1.000000" stroke="none" 
	d="
M170.777908,416.066711 
	C172.019791,417.110443 173.048248,418.082275 173.685669,418.684601 
	C172.773361,421.731384 171.936386,424.526642 171.008072,427.697388 
	C165.498413,426.101562 160.080093,424.130310 154.330521,421.994568 
	C156.027496,420.684937 158.055710,419.539734 160.183075,418.338531 
	C158.725662,415.465302 157.130508,412.657043 155.869308,409.706055 
	C155.130646,407.977722 155.437851,406.784119 157.788330,409.066437 
	C158.414032,409.751923 158.723938,409.983887 159.033844,410.215881 
	C159.905960,414.687317 163.750549,413.550598 167.089371,414.780762 
	C168.409012,415.514801 169.266281,415.708618 170.123566,415.902405 
	C170.123566,415.902405 170.564468,415.994751 170.777908,416.066711 
z"/>
<path fill="#3DB05A" opacity="1.000000" stroke="none" 
	d="
M216.468384,422.972687 
	C215.561569,429.045929 212.480789,431.590820 205.840576,431.962006 
	C202.415482,432.153442 198.980820,432.174042 194.953918,432.506409 
	C194.153870,432.808044 193.950378,432.875092 193.746902,432.942108 
	C192.077759,432.953003 190.408615,432.963898 188.405457,432.927734 
	C191.436798,429.755737 194.636871,426.416138 198.260208,423.626251 
	C199.471313,422.693787 201.761871,423.052979 203.562698,423.018921 
	C207.709656,422.940491 211.858887,422.983063 216.468384,422.972687 
z"/>
<path fill="#97E18F" opacity="1.000000" stroke="none" 
	d="
M79.949951,320.992676 
	C79.971367,322.744904 79.992783,324.497162 79.978729,326.685852 
	C79.305313,323.530029 78.514275,319.956482 78.070152,316.340363 
	C77.572411,312.287689 77.442101,308.191376 77.054314,304.123322 
	C76.591034,299.263428 79.609650,296.811951 85.794151,297.583405 
	C85.931145,297.930115 85.836975,298.039795 85.448532,298.015472 
	C79.918007,297.799377 79.113731,301.657745 79.044685,305.259705 
	C78.944290,310.496338 79.610588,315.747620 79.949951,320.992676 
z"/>
<path fill="#97E18F" opacity="1.000000" stroke="none" 
	d="
M218.296509,179.373016 
	C227.357361,179.330261 236.546143,179.689529 245.733215,180.088333 
	C248.824921,180.222565 251.529114,179.985901 251.031586,175.340149 
	C252.146347,176.946671 253.267197,178.981918 254.580566,181.366730 
	C242.027252,180.819489 230.225510,180.304993 218.296509,179.373016 
z"/>
<path fill="#97E18F" opacity="1.000000" stroke="none" 
	d="
M304.339539,241.088806 
	C304.788055,241.078415 304.862610,241.567474 304.906494,241.810486 
	C292.285614,242.009705 279.620819,241.965942 266.491699,241.856293 
	C271.360596,241.541595 276.693909,241.292755 282.486877,241.004669 
	C289.928070,241.009995 296.909546,241.054596 304.339539,241.088806 
z"/>
<path fill="#97E18F" opacity="1.000000" stroke="none" 
	d="
M159.500870,410.145081 
	C158.723938,409.983887 158.414032,409.751923 157.983002,409.251648 
	C158.102982,408.922333 158.344101,408.861298 159.356293,408.760315 
	C162.685211,408.706665 165.243057,408.692932 167.800888,408.679199 
	C169.250183,408.711639 170.699478,408.744110 172.580246,408.721680 
	C178.402084,408.743683 183.792465,408.820587 189.658997,408.933716 
	C188.661713,409.330933 187.191940,409.986053 185.714279,410.004364 
	C177.133179,410.110687 168.550217,410.067169 159.500870,410.145081 
z"/>
<path fill="#97E18F" opacity="1.000000" stroke="none" 
	d="
M199.476685,194.139679 
	C197.199432,193.973724 195.388672,193.767685 193.250214,193.352539 
	C202.986725,193.108170 213.050934,193.072937 223.586441,193.115845 
	C216.019562,193.495850 207.981369,193.797745 199.476685,194.139679 
z"/>
<path fill="#97E18F" opacity="1.000000" stroke="none" 
	d="
M193.936340,433.364624 
	C193.950378,432.875092 194.153870,432.808044 194.669785,432.667267 
	C204.066162,432.662628 213.150101,432.731689 222.709106,432.881195 
	C222.730499,433.339691 222.275497,434.048767 221.823410,434.046936 
	C212.590668,434.009094 203.358246,433.889984 193.936340,433.364624 
z"/>
<path fill="#97E18F" opacity="1.000000" stroke="none" 
	d="
M314.778015,118.446396 
	C314.785400,111.238266 314.835724,104.471771 314.947815,97.220474 
	C315.355042,98.381226 315.991058,100.025879 315.996094,101.672470 
	C316.018707,109.033493 315.861420,116.395058 315.382233,123.994156 
	C314.937256,122.450592 314.879089,120.669312 314.778015,118.446396 
z"/>
<path fill="#97E18F" opacity="1.000000" stroke="none" 
	d="
M221.558014,421.094727 
	C220.599762,421.518280 219.173477,421.855682 217.365448,422.230499 
	C210.150314,422.096313 203.316925,421.924713 196.168610,421.452087 
	C204.265762,421.103607 212.677872,421.056091 221.558014,421.094727 
z"/>
<path fill="#5ED86E" opacity="1.000000" stroke="none" 
	d="
M274.982239,191.397491 
	C275.735229,189.218765 276.516998,187.362732 277.299683,185.507126 
	C279.606415,188.508835 279.545227,188.808441 275.504120,192.878143 
	C275.129547,192.572556 275.070282,192.146362 274.982239,191.397491 
z"/>
<path fill="#359F56" opacity="1.000000" stroke="none" 
	d="
M339.411133,310.037170 
	C340.166077,308.093658 341.272919,306.094940 342.755676,304.073730 
	C342.008728,306.028168 340.885864,308.005096 339.411133,310.037170 
z"/>
<path fill="#51C666" opacity="1.000000" stroke="none" 
	d="
M316.855103,229.661438 
	C313.974182,229.982620 312.917847,228.346252 313.065186,225.272720 
	C314.327789,226.368973 315.580841,227.849869 316.855103,229.661438 
z"/>
<path fill="#83EE58" opacity="1.000000" stroke="none" 
	d="
M190.374786,169.917847 
	C191.811600,167.043976 193.367920,167.827774 194.904373,170.507172 
	C193.576859,170.545715 192.160065,170.263885 190.374786,169.917847 
z"/>
<path fill="#83EA60" opacity="1.000000" stroke="none" 
	d="
M261.987335,92.341263 
	C262.012360,93.269722 261.873596,94.521736 261.448578,95.892929 
	C261.382690,94.896347 261.603119,93.780586 261.987335,92.341263 
z"/>
<path fill="#72E364" opacity="1.000000" stroke="none" 
	d="
M159.375870,244.905762 
	C159.934937,244.653992 160.864975,244.474487 161.897507,244.563843 
	C161.248947,244.881134 160.497894,244.929581 159.375870,244.905762 
z"/>
<path fill="#48BA61" opacity="1.000000" stroke="none" 
	d="
M327.830139,248.659576 
	C327.261841,248.020477 326.768677,247.047165 326.373230,245.712738 
	C326.949066,246.342896 327.427185,247.334152 327.830139,248.659576 
z"/>
<path fill="#51C666" opacity="1.000000" stroke="none" 
	d="
M450.825134,142.694000 
	C450.225922,142.176544 449.598694,141.346527 449.021484,140.231461 
	C449.646667,140.758072 450.221863,141.569748 450.825134,142.694000 
z"/>
<path fill="#78E95D" opacity="1.000000" stroke="none" 
	d="
M86.003281,297.925659 
	C86.721809,298.703552 87.368195,299.485901 88.054703,300.589050 
	C88.094833,300.909851 87.971756,301.016602 87.624176,300.920685 
	C86.796722,299.896454 86.316849,298.968109 85.836975,298.039795 
	C85.836975,298.039795 85.931145,297.930115 86.003281,297.925659 
z"/>
<path fill="#83EA60" opacity="1.000000" stroke="none" 
	d="
M126.041451,235.386902 
	C126.546776,235.269058 127.172714,235.426544 127.837021,235.841156 
	C127.304291,235.952927 126.733177,235.807587 126.041451,235.386902 
z"/>
<path fill="#5ED86E" opacity="1.000000" stroke="none" 
	d="
M261.911621,197.609741 
	C260.928589,197.739609 259.758545,197.546616 258.316132,197.122543 
	C259.270691,197.023270 260.497681,197.155075 261.911621,197.609741 
z"/>
<path fill="#51C666" opacity="1.000000" stroke="none" 
	d="
M435.040955,157.307083 
	C434.988861,157.654907 434.814301,158.258560 434.407593,158.924469 
	C434.423096,158.512146 434.670807,158.037537 435.040955,157.307083 
z"/>
<path fill="#48BA61" opacity="1.000000" stroke="none" 
	d="
M169.952026,415.600891 
	C169.266281,415.708618 168.409012,415.514801 167.310028,415.090454 
	C167.972366,415.006409 168.876419,415.152893 169.952026,415.600891 
z"/>
<path fill="#97E18F" opacity="1.000000" stroke="none" 
	d="
M277.982849,34.631931 
	C277.517639,34.753761 276.949249,34.561413 276.183594,34.130726 
	C276.617432,34.034180 277.248566,34.175968 277.982849,34.631931 
z"/>
<path fill="#5ED86E" opacity="1.000000" stroke="none" 
	d="
M307.039459,216.616776 
	C306.771210,216.438019 306.466064,215.953094 306.114258,215.179260 
	C306.379242,215.363754 306.690918,215.837189 307.039459,216.616776 
z"/>
<path fill="#97E18F" opacity="1.000000" stroke="none" 
	d="
M251.045151,174.707474 
	C250.761948,174.530380 250.438461,174.030579 250.076965,173.229080 
	C250.360931,173.413177 250.682907,173.898972 251.045151,174.707474 
z"/>
<path fill="#97E18F" opacity="1.000000" stroke="none" 
	d="
M282.988586,38.634472 
	C282.526886,38.758846 281.958221,38.570637 281.188660,38.148361 
	C281.619080,38.050156 282.250305,38.186020 282.988586,38.634472 
z"/>
<path fill="#97E18F" opacity="1.000000" stroke="none" 
	d="
M284.024841,39.707466 
	C283.799408,39.786621 283.516235,39.589184 283.123901,39.152206 
	C283.332184,39.085400 283.649628,39.258137 284.024841,39.707466 
z"/>
<path fill="#44B55F" opacity="1.000000" stroke="none" 
	d="
M448.874268,138.714020 
	C448.627838,138.772263 448.437408,138.554947 448.185791,138.116623 
	C448.365326,138.100967 448.633881,138.281906 448.874268,138.714020 
z"/>
<path fill="#97E18F" opacity="1.000000" stroke="none" 
	d="
M276.034302,33.705788 
	C275.804321,33.880135 275.516205,33.722527 275.089111,33.329582 
	C275.264160,33.238693 275.606171,33.331894 276.034302,33.705788 
z"/>
<path fill="#97E18F" opacity="1.000000" stroke="none" 
	d="
M279.027557,35.708817 
	C278.803925,35.787090 278.522949,35.588196 278.128876,35.152885 
	C278.333923,35.088192 278.652069,35.259922 279.027557,35.708817 
z"/>
<path fill="#97E18F" opacity="1.000000" stroke="none" 
	d="
M280.029663,36.710152 
	C279.807495,36.787338 279.526428,36.586670 279.129028,36.150864 
	C279.332092,36.087917 279.651428,36.260109 280.029663,36.710152 
z"/>
<path fill="#369957" opacity="1.000000" stroke="none" 
	d="
M233.750305,419.103821 
	C233.998306,419.154480 233.637100,419.365997 233.637100,419.365997 
	C233.637100,419.365997 233.226898,419.324036 233.115692,419.234619 
	C233.170441,419.114502 233.336380,419.083801 233.750305,419.103821 
z"/>
<path fill="#97E18F" opacity="1.000000" stroke="none" 
	d="
M281.031525,37.718285 
	C280.815521,37.789616 280.538422,37.581783 280.134796,37.144291 
	C280.328979,37.089458 280.649689,37.264290 281.031525,37.718285 
z"/>
<path fill="#44B55F" opacity="1.000000" stroke="none" 
	d="
M426.718567,176.000458 
	C426.820007,176.168533 426.665619,176.417099 426.328461,176.805984 
	C426.059204,176.595062 426.164886,176.306610 426.718567,176.000458 
z"/>
<path fill="#97E18F" opacity="1.000000" stroke="none" 
	d="
M285.029602,40.709816 
	C284.806732,40.787975 284.526276,40.588104 284.129700,40.153610 
	C284.333069,40.089920 284.652527,40.260849 285.029602,40.709816 
z"/>
<path fill="#97E18F" opacity="1.000000" stroke="none" 
	d="
M286.029724,41.710342 
	C285.808655,41.786118 285.529510,41.583012 285.130432,41.146835 
	C285.330902,41.086330 285.651276,41.258892 286.029724,41.710342 
z"/>
<path fill="#5ED86E" opacity="1.000000" stroke="none" 
	d="
M109.852036,369.728088 
	C109.599442,369.784485 109.406181,369.554657 109.143234,369.096985 
	C109.321716,369.086182 109.600983,369.277100 109.852036,369.728088 
z"/>
<path fill="#97E18F" opacity="1.000000" stroke="none" 
	d="
M287.029602,42.711418 
	C286.809906,42.785828 286.531982,42.581028 286.131775,42.144676 
	C286.330139,42.086151 286.650757,42.259182 287.029602,42.711418 
z"/>
<path fill="#97E18F" opacity="1.000000" stroke="none" 
	d="
M288.027344,43.713326 
	C287.810944,43.785339 287.533997,43.579472 287.132660,43.143448 
	C287.327789,43.087345 287.647247,43.261395 288.027344,43.713326 
z"/>
<path fill="#97E18F" opacity="1.000000" stroke="none" 
	d="
M288.911255,44.747482 
	C288.570740,44.872585 288.347260,44.647449 288.105865,44.130653 
	C288.333221,44.092754 288.646637,44.278839 288.911255,44.747482 
z"/>
<path fill="#44B55F" opacity="1.000000" stroke="none" 
	d="
M427.693329,173.987244 
	C427.829346,174.210236 427.658600,174.466766 427.273987,174.849243 
	C427.207764,174.682922 427.316589,174.364777 427.693329,173.987244 
z"/>
<path fill="#000000" opacity="1.000000" stroke="none" 
	d="
M168.571655,203.904526 
	C173.701675,203.877563 178.404831,203.924026 183.895996,203.974411 
	C185.123550,204.035706 185.563095,204.093063 186.002640,204.150421 
	C186.002640,204.150436 185.990494,204.039429 186.176544,204.415176 
	C199.903275,204.790314 213.443985,204.789688 226.984680,204.789078 
	C234.683136,205.197235 242.381577,205.605392 250.520782,206.070251 
	C252.761993,206.667313 254.551056,207.628723 256.364777,207.677750 
	C266.041809,207.939285 273.900879,213.050613 282.128174,217.125122 
	C286.283844,219.183228 290.213959,221.696838 294.601379,224.038589 
	C296.901337,225.767853 298.845947,227.462997 301.052307,229.386307 
	C299.288361,230.048889 297.992554,230.535629 296.347839,231.100677 
	C291.290131,230.801453 286.581299,230.423935 280.985657,230.039429 
	C270.045319,230.060959 259.991791,230.089462 249.938293,230.117966 
	C242.601456,230.752548 235.264618,231.387115 227.464462,232.090271 
	C220.285767,232.448639 213.570389,232.738434 205.935715,233.044250 
	C199.942703,233.042007 194.865875,232.909088 189.796387,233.046402 
	C186.496109,233.135818 183.206512,233.618423 179.912125,233.924881 
	C176.873520,233.961624 173.834915,233.998352 170.398956,234.095673 
	C167.976471,233.776169 165.880264,232.859879 163.939621,233.117126 
	C158.254700,233.870682 153.047821,232.996765 147.857254,230.530487 
	C145.480469,229.401154 142.543045,229.451691 139.449829,228.920319 
	C131.858292,223.899612 123.992828,219.659164 117.670944,213.763519 
	C110.010872,206.619934 105.849861,197.013702 103.388420,185.187561 
	C112.643990,193.203827 122.303581,197.333099 132.786331,199.280304 
	C141.426727,200.885300 150.195084,201.808365 158.913803,202.981155 
	C161.980026,203.393585 165.067200,203.650177 168.571655,203.904526 
z"/>
<path fill="#44B55F" opacity="1.000000" stroke="none" 
	d="
M430.999390,174.000305 
	C430.998810,174.000610 431.219482,174.136093 431.219482,174.136093 
	C431.219482,174.136093 431.066528,174.122559 431.033325,174.060974 
	C431.000153,173.999390 431.000000,174.000000 430.999390,174.000305 
z"/>
<path fill="#000000" opacity="1.000000" stroke="none" 
	d="
M284.445007,184.021729 
	C282.127228,180.133667 280.136658,176.385284 277.988770,172.309875 
	C275.800415,165.106232 273.769379,158.229614 271.404114,151.152832 
	C270.698853,147.564682 270.327820,144.176666 269.900269,140.412476 
	C270.887329,125.657661 271.930878,111.279045 272.901550,96.452751 
	C274.290924,88.171921 275.836578,80.353081 277.183167,72.500107 
	C277.954895,67.999695 278.356171,63.436886 279.023041,58.916744 
	C279.251495,57.368000 279.780396,55.863579 280.667023,54.525337 
	C283.070099,56.829529 284.978210,58.947296 286.886292,61.065067 
	C286.886292,61.065071 286.903473,61.093887 287.030304,61.393341 
	C288.079956,62.511486 289.002808,63.330177 289.925659,64.148865 
	C289.925659,64.148865 289.990234,64.580612 290.024963,65.059151 
	C290.358978,65.718758 290.658234,65.899826 290.957489,66.080902 
	C290.957489,66.080902 290.987213,66.022758 291.006531,66.286980 
	C291.316376,66.732117 291.606842,66.913033 291.897339,67.093941 
	C291.897339,67.093941 292.014496,67.518997 292.078552,67.729340 
	C293.674225,71.404335 295.352478,74.812912 296.703766,78.346512 
	C298.847961,83.953728 300.773682,89.644501 302.983215,95.646706 
	C303.460480,104.350250 303.746307,112.707024 304.096161,121.527725 
	C303.588959,124.323456 303.086792,126.674767 302.434753,128.983749 
	C299.357758,139.879486 296.229462,150.760757 293.158081,161.658051 
	C292.938568,162.436981 293.028442,163.303146 292.952911,164.530701 
	C291.945129,172.078873 290.936188,179.222076 289.989349,186.373505 
	C289.765686,188.062637 289.750580,189.779388 288.432953,191.709381 
	C287.212708,189.193390 285.992462,186.677383 284.445007,184.021729 
z"/>
<path fill="#83EA60" opacity="1.000000" stroke="none" 
	d="
M286.893372,60.697868 
	C284.978210,58.947296 283.070099,56.829529 281.045410,54.397377 
	C282.919342,56.165550 284.909882,58.248112 286.893372,60.697868 
z"/>
<path fill="#83EA60" opacity="1.000000" stroke="none" 
	d="
M266.582275,99.294350 
	C266.310669,99.698380 265.986237,99.893944 265.661743,100.089508 
	C265.583862,99.806076 265.505951,99.522644 265.428040,99.239212 
	C265.795166,99.188095 266.162292,99.136986 266.582275,99.294350 
z"/>
<path fill="#83EA60" opacity="1.000000" stroke="none" 
	d="
M289.911011,63.787193 
	C289.002808,63.330177 288.079956,62.511486 287.045258,61.400925 
	C287.921051,61.881210 288.908722,62.653358 289.911011,63.787193 
z"/>
<path fill="#83EA60" opacity="1.000000" stroke="none" 
	d="
M290.844879,65.880600 
	C290.658234,65.899826 290.358978,65.718758 290.092651,65.266663 
	C290.363098,65.192604 290.565308,65.420830 290.844879,65.880600 
z"/>
<path fill="#83EA60" opacity="1.000000" stroke="none" 
	d="
M291.769043,66.887611 
	C291.606842,66.913033 291.316376,66.732117 290.973938,66.288322 
	C291.195679,66.206680 291.435272,66.425293 291.769043,66.887611 
z"/>
<path fill="#48BA61" opacity="1.000000" stroke="none" 
	d="
M167.495346,408.526428 
	C165.243057,408.692932 162.685211,408.706665 159.715149,408.658264 
	C160.318298,408.398621 161.333679,408.201111 162.672699,407.997925 
	C164.394165,408.119415 165.791977,408.246521 167.495346,408.526428 
z"/>
<path fill="#97E18F" opacity="1.000000" stroke="none" 
	d="
M250.286987,230.355560 
	C259.991791,230.089462 270.045319,230.060959 280.568024,230.111755 
	C275.988525,230.482910 270.942139,230.950928 265.890472,231.017197 
	C260.808258,231.083893 255.720840,230.750961 250.286987,230.355560 
z"/>
<path fill="#97E18F" opacity="1.000000" stroke="none" 
	d="
M180.383545,233.966537 
	C183.206512,233.618423 186.496109,233.135818 189.796387,233.046402 
	C194.865875,232.909088 199.942703,233.042007 205.476044,233.129272 
	C204.854187,233.489014 203.772736,233.779739 202.350311,234.111267 
	C194.957886,234.104126 187.906418,234.056168 180.383545,233.966537 
z"/>
<path fill="#3DB05A" opacity="1.000000" stroke="none" 
	d="
M451.999390,152.000610 
	C451.599792,151.766541 451.193268,151.542908 450.812073,151.282227 
	C450.767822,151.251953 450.864044,151.016251 450.895172,150.875793 
	C451.224854,151.102890 451.554535,151.329987 451.942719,151.777924 
	C452.001221,151.998779 452.000000,152.000000 451.999390,152.000610 
z"/>
<path fill="#97E18F" opacity="1.000000" stroke="none" 
	d="
M226.750458,204.635468 
	C213.443985,204.789688 199.903275,204.790314 186.121124,204.421967 
	C187.632050,204.019379 189.384445,203.985733 191.573807,203.925262 
	C202.675110,203.921036 213.339432,203.943634 224.463898,203.955475 
	C225.454742,204.123749 225.985489,204.302811 226.750458,204.635468 
z"/>
<path fill="#97E18F" opacity="1.000000" stroke="none" 
	d="
M185.843872,203.971588 
	C185.563095,204.093063 185.123550,204.035706 184.359924,203.905182 
	C184.585587,203.818954 185.135345,203.805847 185.843872,203.971588 
z"/>
<path fill="#83EE58" opacity="1.000000" stroke="none" 
	d="
M85.448532,298.015472 
	C86.316849,298.968109 86.796722,299.896454 87.562256,300.973633 
	C87.097115,306.708435 86.618660,312.354889 85.399391,317.836609 
	C85.103485,319.166962 82.367050,319.954498 80.351379,320.992157 
	C79.610588,315.747620 78.944290,310.496338 79.044685,305.259705 
	C79.113731,301.657745 79.918007,297.799377 85.448532,298.015472 
z"/>
</svg>